<?xml version="1.0" encoding="iso-8859-1"?>
<!-- Generator: Adobe Illustrator 19.0.0, SVG Export Plug-In . SVG Version: 6.00 Build 0)  -->
<svg version="1.1" id="Layer_1" xmlns="http://www.w3.org/2000/svg" xmlns:xlink="http://www.w3.org/1999/xlink" x="0px" y="0px"
	 viewBox="0 0 344.112 344.112" style="enable-background:new 0 0 344.112 344.112;" xml:space="preserve">
<g>
	<g>
		<g>
			<path d="M181.473,282.038H44.253V181.142c0-1.876-1.52-3.4-3.4-3.4c-1.876,0-3.4,1.524-3.4,3.4v104.292c0,1.88,1.524,3.4,3.4,3.4
				h140.62c1.876,0,3.4-1.52,3.4-3.4C184.873,283.558,183.349,282.038,181.473,282.038z"/>
			<path d="M302.941,121.41c-1.876,0-3.4,1.524-3.4,3.4v157.228h-49.748c-1.876,0-3.4,1.524-3.4,3.4c0,1.88,1.524,3.4,3.4,3.4
				h53.148c1.876,0,3.4-1.524,3.4-3.4V124.81C306.341,122.934,304.817,121.41,302.941,121.41z"/>
			<path d="M37.453,158.97c0,1.876,1.524,3.4,3.4,3.4c1.88,0,3.4-1.524,3.4-3.4v-46.324h223.52c1.876,0,3.4-1.524,3.4-3.4
				c0-1.88-1.524-3.4-3.4-3.4H40.853c-1.876,0-3.4,1.52-3.4,3.4V158.97z"/>
			<path d="M91.565,126.646c0-1.316-1.06-2.38-2.38-2.38H61.689c-1.316,0-2.376,1.064-2.376,2.38v129.408
				c0,1.316,1.06,2.376,2.376,2.376c1.316,0,2.38-1.06,2.38-2.376V129.022h25.116C90.501,129.022,91.565,127.958,91.565,126.646z"/>
			<path d="M284.445,268.038V126.646c0-1.316-1.06-2.38-2.38-2.38h-143.74c-1.316,0-2.38,1.06-2.38,2.38
				c0,1.316,1.06,2.376,2.38,2.376h141.36v136.636H81.393c-1.316,0-2.376,1.064-2.376,2.38c0,1.316,1.06,2.38,2.376,2.38h200.672
				C283.381,270.418,284.445,269.354,284.445,268.038z"/>
			<path d="M342.945,186.138c-0.808-4.728-3.416-13.24-6.436-23.1c-2.684-8.764-5.724-18.692-7.668-26.672
				c-0.796-3.268-0.104-8.06,1.904-13.132c1.56-3.936,3.876-8.232,6.12-12.384c2.46-4.552,4.78-8.848,5.96-12.424
				c1.628-4.976,1.16-7.056,0.432-9.084c-0.192-0.524-0.268-0.744-0.268-1.176c0-0.452-0.092-0.908-0.272-1.324
				c-3.82-9.012-10.716-21.08-26.46-21.82c-5.18-0.236-10.32,1.028-15.136,2.348c-5.332,1.46-10.632,3.06-15.932,4.664
				c-6.492,1.956-13.208,3.984-19.844,5.696c-10.24,2.64-18.332,1.556-24.752-3.324c-5.572-4.236-11.032-6.632-16.332-7.74
				l-42.108-42.852c-0.076-0.076-0.172-0.108-0.252-0.168c-0.532-5.12-4.824-9.14-10.08-9.14c-5.408,0-9.8,4.244-10.128,9.572
				L118.641,67.89c-3.816,1.3-7.7,3.084-11.664,5.42c-11.088,6.524-22.76,7.208-36.764,2.152c-9.848-3.56-20.116-6.272-30.396-8.992
				c-17.828-4.7-30.372,1.696-37.288,19.084c-0.512,1.3-1.456,7.136,0.204,13.452c0.06,0.22,0.14,0.432,0.24,0.636
				c4.028,8.184,7.296,15.336,10.16,23.648c1.844,5.36,2.304,11.648,1.196,16.408c-2.7,11.604-7.824,28.632-10.884,38.804
				c-1.028,3.428-1.824,6.064-2.204,7.436c-1.628,5.86-1.656,13.22-0.076,22.504c0.804,4.728,3.412,13.244,6.432,23.104
				c2.688,8.764,5.724,18.692,7.668,26.66c0.796,3.28,0.1,8.068-1.904,13.14c-1.556,3.932-3.876,8.228-6.12,12.376
				c-2.456,4.556-4.78,8.86-5.956,12.436c-1.636,4.972-1.164,7.056-0.44,9.076c0.192,0.528,0.268,0.744,0.268,1.172
				c0,0.456,0.096,0.912,0.272,1.324c3.82,9.02,10.716,21.084,26.464,21.816c5.268,0.216,10.54-1.084,15.136-2.344
				c5.348-1.468,10.66-3.064,15.976-4.672c6.48-1.952,13.18-3.972,19.804-5.68c10.228-2.636,18.324-1.556,24.756,3.32
				c14.92,11.336,30.68,11.952,48.156,1.912c5.604-3.212,12.596-4.82,18.708-6.072c0.928-0.192,1.836-0.268,2.508-0.316
				c5.22,0.044,8.864,1.08,11.804,3.372c16.28,12.668,33.428,13.388,52.432,2.2c11.08-6.524,22.76-7.224,36.768-2.16
				c9.888,3.568,20.188,6.3,30.388,9c3.788,0.996,7.328,1.5,10.636,1.5c12.264,0,21.208-6.888,26.66-20.576
				c0.512-1.3,1.46-7.128-0.204-13.46c-0.06-0.22-0.14-0.432-0.24-0.636c-4.02-8.164-7.288-15.316-10.16-23.644
				c-1.844-5.372-2.304-11.66-1.196-16.416c2.7-11.608,7.824-28.64,10.888-38.812c1.028-3.424,1.82-6.056,2.2-7.424v-0.004
				C344.501,202.778,344.525,195.418,342.945,186.138z M171.821,19.302c2.972,0,5.396,2.42,5.396,5.396
				c0,2.972-2.42,5.396-5.396,5.396c-2.976,0-5.392-2.42-5.392-5.396C166.429,21.722,168.849,19.302,171.821,19.302z M162.961,29.63
				c1.744,3.116,5.036,5.252,8.856,5.252c3.944,0,7.332-2.276,9.024-5.56l35.972,36.604c-8.648,0.016-16.78,2.976-24.144,6.436
				c-14.804,6.968-21.476,7.092-21.86,7.092h-0.012c-4.348-0.036-7.968-1.288-11.384-3.948c-10.228-7.964-20.808-11.2-31.976-9.728
				L162.961,29.63z M336.325,206.818c-0.376,1.344-1.152,3.928-2.164,7.288c-3.084,10.256-8.244,27.416-10.996,39.232
				c-1.404,6.016-0.888,13.56,1.388,20.164c2.948,8.56,6.264,15.852,10.332,24.124c1.076,4.38,0.504,8.336,0.376,8.9
				c-5.592,14.048-14.88,18.808-29.48,14.952c-9.82-2.596-19.972-5.284-29.576-8.76c-15.828-5.716-29.74-4.824-42.524,2.7
				c-16.56,9.744-30.796,9.204-44.812-1.712c-5.444-4.228-11.692-4.768-16.144-4.796c-1.22,0.068-2.444,0.188-3.708,0.444
				c-6.628,1.364-14.248,3.124-20.72,6.84c-15.28,8.772-27.82,8.324-40.668-1.432c-8.076-6.132-18.356-7.632-30.556-4.488
				c-6.764,1.744-13.532,3.788-20.072,5.764c-5.26,1.588-10.516,3.172-15.812,4.62c-4.284,1.176-8.88,2.276-13.02,2.112
				c-9.172-0.424-15.264-5.556-20.288-17.12c-0.092-1.196-0.4-2.052-0.636-2.7c-0.3-0.844-0.536-1.504,0.496-4.664
				c0.988-3.008,3.172-7.048,5.484-11.332c2.336-4.32,4.752-8.796,6.46-13.104c1.476-3.724,3.72-10.924,2.184-17.244
				c-1.992-8.164-5.06-18.196-7.772-27.044c-2.828-9.232-5.5-17.96-6.24-22.256c-1.404-8.276-1.428-14.668-0.076-19.544
				c0.376-1.344,1.152-3.932,2.168-7.3c3.08-10.248,8.24-27.404,10.992-39.22c1.404-6.024,0.88-13.564-1.388-20.16
				c-2.936-8.54-6.26-15.84-10.328-24.124c-1.08-4.384-0.512-8.344-0.376-8.904c5.588-14.048,14.876-18.808,29.58-14.92
				c9.784,2.588,19.908,5.268,29.476,8.728c15.824,5.712,29.736,4.84,42.516-2.7c16.556-9.744,30.796-9.204,44.82,1.708
				c4.588,3.568,9.656,5.328,15.376,5.376c0.844,0.08,8.284,0.112,24.948-7.732c11.724-5.524,20.74-7.064,29.056-4.76
				c0.412,0.296,0.88,0.484,1.368,0.484c0.052,0,0.104-0.028,0.156-0.028c3.496,1.184,6.9,2.996,10.332,5.608
				c8.064,6.128,18.356,7.628,30.56,4.496c6.772-1.752,13.556-3.796,20.116-5.776c5.244-1.584,10.484-3.168,15.76-4.612
				c4.3-1.176,8.864-2.288,13.024-2.112c9.172,0.432,15.264,5.56,20.288,17.124c0.092,1.196,0.4,2.052,0.636,2.7
				c0.3,0.844,0.536,1.508-0.496,4.668c-0.992,3-3.168,7.04-5.484,11.316c-2.336,4.328-4.752,8.8-6.46,13.116
				c-1.476,3.736-3.724,10.94-2.188,17.244c1.992,8.164,5.06,18.2,7.772,27.052c2.828,9.232,5.5,17.956,6.236,22.252
				C337.653,195.546,337.677,201.938,336.325,206.818z"/>
			<path d="M200.221,177.266h-0.06c-10.756,0-21.196,17.652-29.108,35.844c-15.344-38.06-29.544-57.44-42.216-57.52h-0.08
				c-26.516,0-51.924,85.88-54.736,95.684c-0.204,0.716-0.068,1.484,0.38,2.08c0.448,0.6,1.148,0.952,1.888,0.956l83.808,0.524
				h0.012c0.172,0,0.32-0.06,0.48-0.096l81.164,0.508h0.012c0.752,0,1.452-0.352,1.9-0.952c0.456-0.604,0.596-1.388,0.38-2.108
				C241.761,244.534,221.121,177.402,200.221,177.266z M109.073,193.962l1.036-17.548c6.188-9.62,12.604-16.064,18.644-16.064h0.056
				c6.08,0.036,13.236,6.8,21.004,19.576c-0.004,0.02-0.024,0.036-0.028,0.06l-1.388,5.456c-0.984-0.528-1.752-2.096-2.62-3.852
				c-1.888-3.836-4.516-5.744-7.52-5.52c-2.388,0.228-5.444,1.896-6.448,8.536l-1.192,7.984c-0.156,1.016-0.344,1.396-0.368,1.396
				c0,0,0-0.012,0.008-0.044c-1.596-0.66-2.2-3.08-2.38-4.092c-0.136-0.728-0.22-1.472-0.304-2.216
				c-0.212-1.776-0.424-3.616-1.176-5.436c-0.624-1.516-1.564-2.496-2.792-2.912c-2.016-0.68-4.172,0.36-5.636,2.7
				c-1.316,2.096-2.256,4.364-3.168,6.548c-1.272,3.064-2.48,5.964-4.568,8.072c-0.388,0.392-0.588,0.504-0.588,0.536
				c-0.104-0.052-0.308-0.244-0.412-0.504C108.961,195.966,109.017,194.986,109.073,193.962z M157.765,250.07l-78.288-0.496
				c4.788-16.044,14.392-43.732,25.284-64.02l-0.48,8.136c-0.08,1.372-0.172,3.076,0.492,4.74c0.856,2.136,2.788,3.516,4.836,3.516
				c0.188,0,0.376-0.012,0.56-0.032c1.592-0.204,2.736-1.196,3.456-1.92c2.752-2.776,4.2-6.248,5.6-9.612
				c0.872-2.1,1.692-4.08,2.804-5.848c0.028-0.036,0.052-0.08,0.076-0.116c0.392,1.128,0.544,2.42,0.7,3.78
				c0.1,0.844,0.196,1.684,0.348,2.516c0.7,3.828,2.572,6.548,5.292,7.664c1.088,0.444,2.196,0.536,3.164,0.284
				c2.036-0.548,3.296-2.348,3.744-5.356l1.196-7.976c0.396-2.636,1.252-4.396,2.164-4.48c0.728-0.156,1.872,1.036,2.908,3.144
				c1.092,2.224,2.588,5.276,5.764,6.192c1.444,0.416,2.888,0.204,3.956-0.6c1.184-0.912,1.524-2.244,1.704-2.964l0.184-0.72
				c4.9,8.964,10.004,20.152,15.204,33.468C163.085,232.614,159.241,245.066,157.765,250.07z M238.557,250.462l-75.82-0.468
				c4.368-14.604,11.104-32.808,18.332-46.72c0.048,3.456,1.316,6.04,3.728,7.104c0.744,0.328,1.5,0.472,2.24,0.472
				c2.28,0,4.44-1.364,5.736-2.98c0.968-1.212,1.58-2.52,2.168-3.784c0.268-0.576,0.532-1.148,0.84-1.704
				c0.568-1.024,1.236-1.764,1.912-2.104c0.06,0.444,0.088,0.936,0.116,1.444c0.052,0.888,0.116,1.776,0.312,2.652
				c0.632,2.812,3.14,5.396,6.16,4.804c2.028-0.38,3.584-2.04,4.368-4.684c0.436-1.464,0.696-2.984,0.752-4.888
				c0.112,0.032,0.224,0.076,0.324,0.136c0.4,0.252,0.752,0.576,1.104,0.888c0.764,0.672,1.628,1.436,2.816,1.912
				c1.712,0.688,3.668,0.556,5.284-0.328C226.597,216.366,233.853,235.346,238.557,250.462z M215.425,198.098
				c-0.424-0.172-0.912-0.596-1.428-1.052c-0.544-0.48-1.1-0.956-1.704-1.34c-1.42-0.904-3.232-1.176-4.736-0.696
				c-1.204,0.38-2.12,1.208-2.584,2.332c-0.324,0.796-0.336,1.532-0.352,2.16c-0.028,1.236-0.22,2.456-0.568,3.628
				c-0.276,0.932-0.608,1.3-0.528,1.348c-0.172-0.068-0.592-0.536-0.728-1.152c-0.14-0.608-0.164-1.236-0.196-1.864
				c-0.056-0.988-0.116-2.112-0.472-3.268c-0.116-0.356-0.448-1.436-1.4-2.14c-0.544-0.416-1.492-0.888-2.88-0.74
				c-2.468,0.236-4.692,1.92-6.264,4.752c-0.36,0.652-0.672,1.324-0.992,2.004c-0.488,1.052-0.952,2.048-1.56,2.804
				c-0.676,0.84-1.744,1.348-2.304,1.12c-0.692-0.312-1.068-1.836-0.912-3.716c0.332-4.052,1.592-8.044,3.64-11.556
				c0.256-0.436,0.312-0.916,0.276-1.384c3.6-4.54,7.148-7.316,10.424-7.316h0.036c5.012,0.032,10.74,6.528,16.36,16.02
				C216.209,198.21,215.777,198.246,215.425,198.098z"/>
			<path d="M260.997,160.966c0-9.46-7.7-17.16-17.164-17.16c-9.46,0-17.156,7.7-17.156,17.16c0,9.46,7.696,17.16,17.156,17.16
				C253.297,178.13,260.997,170.43,260.997,160.966z M231.429,160.966c0-6.84,5.564-12.4,12.4-12.4s12.408,5.564,12.408,12.4
				c0,6.84-5.568,12.4-12.408,12.4C236.989,173.366,231.429,167.806,231.429,160.966z"/>
			<path d="M36.309,81.346c-4.428-1.732-9.268-1.82-13.268-0.244c-4.552,1.792-8.02,5.86-8.84,10.356
				c-0.236,1.308,0.628,2.552,1.928,2.788c0.144,0.024,0.292,0.04,0.432,0.04c1.132,0,2.144-0.812,2.356-1.968
				c0.528-2.908,2.836-5.56,5.876-6.756c2.904-1.14,6.456-1.048,9.76,0.248c1.24,0.484,2.628-0.124,3.108-1.356
				C38.145,83.222,37.541,81.83,36.309,81.346z"/>
			<path d="M324.885,92.726c0.548,3.772-0.74,7.836-3.352,10.608c-0.908,0.96-0.864,2.476,0.1,3.384
				c0.464,0.44,1.052,0.656,1.644,0.656c0.636,0,1.272-0.252,1.74-0.756c3.652-3.868,5.376-9.316,4.616-14.58
				c-0.764-5.268-3.956-10.004-8.544-12.684c-1.14-0.672-2.612-0.284-3.276,0.864c-0.672,1.14-0.284,2.612,0.86,3.28
				C321.957,85.418,324.341,88.95,324.885,92.726z"/>
			<path d="M208.277,88.258c0.316,0,0.632-0.06,0.936-0.192c4.94-2.108,10.732-2.436,15.88-0.908c1.264,0.372,2.604-0.348,2.98-1.62
				c0.376-1.268-0.352-2.604-1.62-2.98c-6.292-1.856-13.08-1.476-19.112,1.096c-1.22,0.512-1.788,1.924-1.268,3.14
				C206.461,87.71,207.345,88.258,208.277,88.258z"/>
			<path d="M326.869,181.878c-0.592-1.628-1.184-3.256-1.664-4.916c-0.368-1.276-1.688-2.008-2.972-1.636
				c-1.268,0.368-2,1.696-1.636,2.972c0.512,1.756,1.132,3.484,1.76,5.212c1.152,3.188,2.244,6.204,2.564,9.332
				c0.536,5.22-1.08,10.432-2.796,15.952c-1.944,6.264-3.952,12.74-2.692,19.472c0.216,1.148,1.22,1.956,2.348,1.956
				c0.152,0,0.296-0.012,0.444-0.044c1.3-0.244,2.16-1.492,1.916-2.796c-1.04-5.568,0.712-11.204,2.56-17.168
				c1.784-5.74,3.624-11.672,2.984-17.868C329.313,188.638,328.069,185.202,326.869,181.878z"/>
			<path d="M32.453,311.414c-7.724-0.66-14.084-7.288-14.528-15c-0.176-3.064-4.972-3.088-4.792,0
				c0.604,10.476,8.892,18.904,19.32,19.796C35.525,316.47,35.509,311.674,32.453,311.414z"/>
		</g>
	</g>
</g>
<g>
</g>
<g>
</g>
<g>
</g>
<g>
</g>
<g>
</g>
<g>
</g>
<g>
</g>
<g>
</g>
<g>
</g>
<g>
</g>
<g>
</g>
<g>
</g>
<g>
</g>
<g>
</g>
<g>
</g>
</svg>
